<svg version="1" xmlns="http://www.w3.org/2000/svg" width="1280" height="1280" viewBox="0 0 960.000000 960.000000"><path d="M304 17.6c-10.7 2.8-17.9 7.3-27.2 16.6-4.9 4.9-8.8 9.4-8.8 10 0 .6-.6 1.9-1.4 2.7-2.5 2.9-6.4 16.4-7.1 24.3-.6 7.6-.5 7.8 1.7 7.9 10.7.5 111.2.2 112.1-.3.9-.6 1.2-10.2.3-11.7-.2-.3-.7-2.3-1-4.4-.3-2-1.7-6.4-3-9.6-6.4-15.8-20.6-29-37.1-34.6-6.7-2.3-21.4-2.7-28.5-.9zm25.9 10.9c15.7 5.5 28.3 19.2 32.5 35.2l1.4 5.3h-12.1c-21.1 0-77.1.1-79.5 0-2.1 0-2.2-.3-1.6-3.8.3-2 2.1-6.9 4-10.9 6.2-13 19.2-23.6 32.9-26.9 6.2-1.5 16.6-1 22.4 1.1zM183.7 134.8c-1.3.3-1.7 1.5-1.7 5.3v4.9h604v-10h-4.2c-27.1-.3-596.9-.4-598.1-.2zM172.3 196.3c-.3.6-.7 275.9-.3 292.3v2.1h312c284.2 0 312-.2 312.1-1.6.4-13.4-.1-292.4-.6-292.9-1-1-622.6-.9-623.2.1zm602.8 19.6c.3.1.5 57.4.5 127.3l-.1 127.3H485c-159.8.1-291 0-291.6-.2-.7-.3-1-39.1-.9-127.6.1-70 .3-127.2.3-127.2 78.6 0 581.9.4 582.3.4zM615.2 542.6c-27.1 5.7-45.8 30.2-44.7 58.2 1.2 28.9 23.5 52.7 51.4 54.8 8.8.7 8.1.7 12.6 0 6.1-1 6.6-1.1 12.2-3 17.1-5.8 31.2-21.4 35.9-39.8 4.7-18.4-.1-38-12.8-52.5-5.2-5.9-6.9-7.2-15.8-12.3-4.3-2.6-5.4-3-13-5.1-5.7-1.6-19-1.8-25.8-.3zm22.3 9.9c9.8 1.9 22 10.2 28.8 19.7 3 4.1 6.8 13.7 7.3 18.2 1.5 14.9-.3 23.6-7.4 34.4-18.8 28.8-62.1 27.4-79.3-2.5-11-19.1-7.7-42 8.3-57.6 11.2-11 26.3-15.4 42.3-12.2zM479 554.4c-.2 152.3.1 397 .4 397.4.6.6 8.7.5 9.2-.1.4-.3.7-367.5.4-404.8v-3.7l-5 .1h-5v11.1z"/></svg>